# xmcd
#
# Track frame offsets: 
#        150
#        12457
#        23467
#        34385
#        49070
#        62097
#        75822
#        87927
#        97280
#        109895
#        118815
#        129500
#        140437
#        154142
#        165555
#        175752
#        188597
#        199115
#
# Disc length: 2785 seconds
#
# Revision: 5
# Processed by: cddbd v1.5.2PL0 Copyright (c) Steve Scherf et al.
# Submitted via: ExactAudioCopy v0.99pb4
#
DISCID=ea0adf12
DTITLE=Various Artist - The Best Of New Orleans Rhythm and Blues, Vol. 
DTITLE=2
DYEAR=1988
DGENRE=Blues
TTITLE0=Frankie Ford - Sea Cruise
TTITLE1=Roy Montrell - (Every Time I Hear) That Mellow Saxophone
TTITLE2=Shirley and Lee - Let The Good Times Roll
TTITLE3=Art Neville - All These Things
TTITLE4=Lee Dorsey - Ride Your Pony
TTITLE5=The Meters - Cissy Strut
TTITLE6=Irma Thomas - Ruler Of My Heart
TTITLE7=The Dixie Cups - Iko Iko
TTITLE8=Lloyd Price - Just Because
TTITLE9=Chris Kenner - I Like It Like That (Pt. 1)
TTITLE10=Clarence Henry - Ain't Got No Home
TTITLE11=Barbara George - I Know (You Don't Love Me No More)
TTITLE12=Guitar Slim and His Band - The Things That I Used To Do
TTITLE13=Lloyd Price - Lawdy Miss Clawdy
TTITLE14=The Hawketts - Mardi Gras Mambo
TTITLE15=Lee Dorsey - Working In The Coal Mine
TTITLE16=Clarence Henry - I Don't Know Why, But I Do
TTITLE17=Irma Thomas - It's Raining
EXTD=LABEL =Rhino Records Inc.\nID =R275766\nUPC =08122-75766-22\nC
EXTD=OPYRIGHT =1988\n*****\nThis cd has two listed titles ...\n- on t
EXTD=he jewel box spine ="The Best of New Orleans Rhythm and Blues, Vol
EXTD=2"\n- on the jewel box front cover and cd face ="The Best of New
EXTD=Orleans Rhythm and Blues, Volume 2"\n... so i used the title on th
EXTD=e cd face.
EXTT0=
EXTT1=
EXTT2=
EXTT3=
EXTT4=
EXTT5=
EXTT6=
EXTT7=
EXTT8=
EXTT9=
EXTT10=
EXTT11=
EXTT12=
EXTT13=
EXTT14=
EXTT15=
EXTT16=
EXTT17=
PLAYORDER=
